<svg xmlns="http://www.w3.org/2000/svg" viewBox="0 8.449999809265137 230.32000732421875 42.15065002441406" data-asc="0.935546875"><g fill="#000000"><g fill="#000000" transform="translate(0, 0)"><path d="M1.09 47.84Q1.09 47.84 0.86 47.66Q0.63 47.49 0.32 46.96Q0 46.44 0 45.58Q0 44.73 0.43 44.15Q0.85 43.58 1.54 43.02L12.55 33.47L7.89 24.37Q7.40 23.46 7.10 23.10Q6.49 22.34 5.59 22.34Q4.69 22.34 3.80 22.53Q2.91 22.73 1.93 22.78Q0.95 22.83 0.61 22.30Q0.27 21.78 0.27 21.04Q0.27 19.31 1.40 18.58Q2.54 17.85 3.49 17.36Q4.44 16.87 5.57 16.53Q7.74 15.87 11.47 15.63Q12.99 15.55 14.36 16.94Q14.72 17.33 14.92 17.65L20.29 26.76L31.62 16.94Q35.72 13.45 37.94 13.45Q39.53 13.45 41.33 14.72Q43.31 16.11 43.31 17.72Q43.31 18.75 42.53 19.24Q42.38 19.31 41.97 19.60L36.06 24.00L24.17 33.30Q28.03 39.62 28.61 40.36Q29.91 42.31 32.47 42.31Q33.64 42.31 34.59 41.94Q35.55 41.58 36.33 41.58Q37.11 41.58 37.67 41.96Q38.23 42.33 38.23 42.94Q38.23 44.26 36.01 46.00Q33.89 47.58 28.61 49.51Q25.83 50.51 24.51 50.59Q23.19 50.66 22.36 50.27Q21.53 49.88 20.90 49.22Q19.82 48.17 18.85 46.09L15.75 39.87L6.81 46.85Q5.88 47.58 4.98 48.07Q4.08 48.56 3.31 48.56Q2.54 48.56 2.04 48.38Q1.54 48.19 1.09 47.84ZM48.27 41.87Q48.27 40.92 48.88 39.76Q49.49 38.60 50.37 37.11L54.66 30.15Q54.66 30.15 59.47 22.71Q53.81 24.19 50.07 26.39Q48.78 27.15 47.92 27.95Q46.31 29.20 45.31 29.20Q43.48 29.20 43.48 27.56Q43.48 26.83 43.76 26.25Q44.04 25.66 44.49 24.85Q44.95 24.05 45.54 23.08Q46.14 22.12 46.88 21.08Q47.61 20.04 48.44 19.09Q50.29 16.92 51.64 16.28Q52.98 15.65 54.55 15.17Q56.13 14.70 58.25 14.31Q63.16 13.40 68.90 13.40Q81.32 13.40 88.43 16.99Q94.34 20.00 94.34 25.34Q94.34 26.49 94.01 28.10Q93.68 29.71 92.47 32.15Q91.26 34.59 89.18 36.87Q87.11 39.14 84.14 41.13Q81.18 43.12 77.22 44.60Q68.77 47.80 57.25 47.80Q52.76 47.80 50.29 45.80Q48.27 44.19 48.27 41.87M62.04 32.18Q62.04 32.18 61.56 33.22Q61.08 34.25 60.77 35.14Q60.45 36.04 60.45 36.55Q60.45 37.06 60.75 37.59Q61.06 38.11 61.67 38.53Q63.06 39.43 65.80 39.43Q68.53 39.43 71.40 38.99Q74.27 38.55 76.66 37.82Q79.05 37.08 80.93 36.15Q82.81 35.21 84.16 34.23Q86.84 32.20 87.16 30.49Q87.23 30.10 87.23 29.66Q87.23 24.66 76.54 22.56Q72.44 21.73 67.68 21.63Q62.99 30.10 62.04 32.18ZM130.52 31.03Q130.52 32.18 127.51 35.47Q124.44 38.82 121.48 40.92Q115.77 45.17 108.81 46.73Q106.18 47.34 103.82 47.34Q101.46 47.34 99.91 46.94Q98.36 46.53 97.13 45.86Q95.90 45.19 95.00 44.31Q94.09 43.43 93.48 42.46Q92.29 40.55 92.29 38.94Q92.29 37.33 92.64 36.11Q92.99 34.89 93.63 33.79Q95.85 29.79 102.56 26.71Q107.86 24.24 112.67 23.51Q114.75 23.19 115.63 23.19Q116.50 23.19 117.10 23.38Q117.70 23.56 118.14 23.88Q119.12 24.58 119.12 25.81Q119.12 27.03 118.48 28.11Q117.85 29.20 116.87 29.93Q114.97 31.35 112.62 31.35Q109.42 31.35 107.35 30.52Q105.91 31.03 104.91 32.40Q104.08 33.52 104.08 34.41Q104.08 35.30 104.48 36.15Q104.88 36.99 105.62 37.65Q107.23 39.06 109.50 39.06Q114.77 39.06 121.78 33.47L124.00 31.74Q127.51 29.05 129.02 29.05Q130.52 29.05 130.52 31.03ZM150.71 31.74Q150.71 33.06 152.95 33.06Q154.61 33.06 157.30 31.45L159.25 30.37Q160.16 29.86 160.83 29.86Q161.50 29.86 161.89 30.27Q162.28 30.69 162.28 31.42Q162.28 32.15 161.79 33.12Q161.30 34.08 160.45 35.14Q159.59 36.21 158.45 37.24Q157.30 38.28 155.98 39.11Q153.05 40.94 150.54 40.94Q147.88 40.94 146.29 40.04Q145.80 39.75 145.34 39.43Q142.72 42.41 137.77 44.90Q132.50 47.53 128.56 47.53Q124.44 47.53 122.05 44.29Q120.12 41.65 120.12 38.94Q120.12 35.03 124.29 31.49Q127.37 28.91 130.24 27.56Q133.11 26.22 135.42 25.49Q140.33 23.95 144.26 23.95Q146.02 23.95 147.40 24.62Q148.78 25.29 149.44 25.98Q151.00 27.51 151.00 29.91Q151.00 30.62 150.85 31.01Q150.71 31.40 150.71 31.74M130.74 36.35L130.71 36.43L130.71 36.45Q130.71 37.50 131.18 37.82Q132.30 38.50 133.54 38.17Q134.79 37.84 135.91 37.35Q138.70 36.16 140.94 34.33Q140.55 33.54 140.55 32.71Q140.55 30.96 142.09 29.20Q140.14 29.20 136.82 31.03Q133.15 33.06 131.32 35.21Q130.74 35.94 130.74 36.35ZM199.66 28.74Q200.76 28.74 200.76 29.86Q200.76 31.64 198.41 34.89Q196.78 37.16 191.67 41.19Q185.60 45.95 181.91 45.95Q179.13 45.95 177.71 43.60Q176.86 42.19 176.32 39.45L174.15 41.02Q165.19 47.22 160.77 47.22Q157.08 47.22 154.86 44.53Q152.91 42.11 152.91 38.75Q152.91 35.03 155.44 32.89Q160.62 28.54 168.31 25.73Q171.44 24.58 172.27 24.58Q173.10 24.58 173.79 24.87Q174.49 25.15 175.17 25.59Q176.78 26.68 176.78 27.71Q176.78 28.54 175.76 29.05Q175.44 29.22 174.68 29.52Q173.93 29.81 172.83 30.32Q169.87 31.71 167.07 33.69Q165.06 35.40 165.06 36.41Q165.06 37.43 166.48 37.43Q167.65 37.43 171.17 35.35Q171.17 35.35 173.24 34.08Q175.46 32.69 176.81 31.54Q176.81 31.54 177.93 27.88Q180.00 21.34 182.54 17.07Q187.04 8.45 191.58 8.45Q193.24 8.45 194.21 9.06Q195.97 10.16 195.97 11.49Q195.97 12.82 195.48 14.31Q195.00 15.80 194.20 17.26Q193.41 18.73 192.38 20.17L188.21 25.68Q187.16 27.03 186.35 28.30Q184.94 31.35 184.94 33.52Q184.94 36.65 187.21 36.65Q188.50 36.65 191.87 33.94L194.75 31.49Q196.78 29.69 198.75 28.96Q199.32 28.74 199.66 28.74ZM229.15 28.83Q230.32 28.83 230.32 30.15Q230.32 31.03 229.72 32.36Q229.13 33.69 228.00 34.85Q226.88 36.01 225.43 37.26Q223.97 38.50 222.03 39.87Q220.09 41.24 217.75 42.58Q215.41 43.92 212.77 45.00Q206.93 47.39 201.46 47.39Q197.29 47.39 194.17 45.21Q190.89 42.94 190.89 39.70Q190.89 34.59 196.39 30.00Q201.12 26.05 207.54 23.88Q211.45 22.56 214.16 22.56Q216.36 22.56 217.87 23.63Q219.48 24.80 219.48 26.78Q219.48 29.88 214.58 33.64Q213.79 34.25 213.16 34.67L212.28 35.25Q209.84 36.96 204.86 39.09Q206.40 39.89 207.73 39.89Q209.06 39.89 210.12 39.58Q211.18 39.26 212.52 38.67Q213.87 38.09 215.39 37.27Q216.92 36.45 218.48 35.47Q221.97 33.30 224.54 31.03Q225.88 29.79 227.95 29.05Q228.64 28.83 229.15 28.83M202.22 35.69L203.56 35.01Q204.22 34.67 204.74 34.38Q209.67 31.54 210.35 30.88Q211.04 30.22 211.04 29.97Q211.04 29.71 210.89 29.37Q210.74 29.03 210.50 28.76Q209.91 28.08 209.25 28.08Q208.59 28.08 207.80 28.32Q207.01 28.56 206.20 28.99Q205.40 29.42 204.65 30.02Q203.91 30.62 203.34 31.30Q202.05 32.84 202.05 33.96Q202.05 35.08 202.22 35.69Z"/></g></g></svg>